<?xml version="1.0" encoding="UTF-8"?>
<svg id="Layer_2" data-name="Layer 2" xmlns="http://www.w3.org/2000/svg" viewBox="0 0 52.84 75.51">
  <defs>
    <style>
      .cls-1 {
        fill: #f9f9f7;
      }

      .cls-1, .cls-2 {
        stroke: #282423;
        stroke-linejoin: bevel;
      }

      .cls-2 {
        fill: #ff6b36;
      }
    </style>
  </defs>
  <g id="origamiSvg">
    <g id="facesLayer">
      <polygon class="cls-1" points="26.46 36.78 42.29 75.01 26.46 75.01 26.46 36.78"/>
      <polygon class="cls-1" points="26.46 36.78 26.46 75.01 10.62 75.01 26.46 36.78"/>
      <polygon class="cls-2" points="10.63 50.9 18 45.44 11.93 34.43 .5 32.77 .57 44.46 10.63 50.9"/>
      <polygon class="cls-1" points="16.49 42.66 26.46 61.67 8.24 49.37 16.49 42.66"/>
      <polygon class="cls-2" points="26.46 .2 11.93 34.43 26.46 27.25 40.98 34.43 26.46 .2"/>
      <polygon class="cls-1" points="7.25 8.64 20.49 14.26 26.46 27.25 18.72 32.84 7.25 8.64"/>
      <polygon class="cls-1" points="34.2 32.84 26.46 27.25 32.42 14.26 45.67 8.64 34.2 32.84"/>
      <polygon class="cls-1" points="26.46 27.25 40.98 34.43 26.46 61.67 26.46 27.25"/>
      <polygon class="cls-1" points="26.46 27.25 26.46 61.67 11.93 34.43 26.46 27.25"/>
      <polygon class="cls-1" points="8.24 49.37 8.24 61.67 14.26 66.23 18.54 56.7 8.24 49.37"/>
      <polygon class="cls-2" points="52.34 44.46 52.41 32.77 40.98 34.43 34.91 45.44 42.29 50.9 52.34 44.46"/>
      <polygon class="cls-1" points="44.67 49.37 26.46 61.67 36.42 42.66 44.67 49.37"/>
      <polygon class="cls-1" points="44.67 49.37 44.67 61.67 38.65 66.23 34.38 56.7 44.67 49.37"/>
    </g>
  </g>
</svg>