<?xml version="1.0" encoding="UTF-8"?>
<svg id="Layer_2" data-name="Layer 2" xmlns="http://www.w3.org/2000/svg" viewBox="0 0 52.92 75.51">
  <defs>
    <style>
      .cls-1 {
        fill: #3a3a40;
      }
    </style>
  </defs>
  <g id="origamiSvg">
    <path class="cls-1" d="M52.35,32.28l-11.05,1.6-3.33-7.83,8.15-17.19-.64-.68-12.79,5.42L26.92,0h-.92l-5.77,13.6-12.78-5.42-.65.68,8.15,17.2-3.32,7.82-11.05-1.6-.58.49.08,11.69.23.42,7.44,4.77v12.02l.2.4,5.7,4.32-3.49,8.43.47.69h31.67l.46-.69-3.49-8.42,5.71-4.33.2-.4v-12.03l7.43-4.76.24-.42.07-11.69-.57-.49ZM26.96,59.65v-31.6l13.34,6.6-13.34,25ZM36.7,43.53l7.13,5.79h.01s-1.92,1.31-1.92,1.31l-.44.29-6.73,4.56-.43.28-.42.29-6.06,4.09,8.67-16.55.08-.15.11.09ZM40,33.39l-4.46-2.21,1.86-3.92,2.6,6.13ZM32.69,14.88l.11-.23.29-.12,11.57-4.91-7.21,15.2h0s-.28.61-.28.61l-.29.61-2.23,4.7-7.53-3.72,5.29-11.52.28-.62ZM8.27,9.62l11.57,4.91.28.12.11.24.28.61,5.3,11.51-7.53,3.73-2.23-4.72-.29-.6-.29-.6-7.2-15.2ZM15.52,27.26l1.86,3.92h0s-4.46,2.21-4.46,2.21l2.6-6.13ZM1.08,44.18l-.07-10.83,10.61,1.54,4.12,7.74h0s-7.53,6.12-7.53,6.12l-7.13-4.57ZM16.22,43.54l8.85,16.59-15.98-10.8h.01s7.12-5.79,7.12-5.79ZM8.75,61.42v-11.08l9.22,6.41-3.9,8.7-.02-.02-5.3-4.01ZM25.96,74.51h-14.59l3.35-8.08,4.17-9.27,7.07,4.78v12.57ZM25.96,59.67l-13.34-25.02,13.34-6.6v31.62ZM21.04,14.25L26.46,1.48l5.42,12.77-5.42,11.8-5.42-11.8ZM41.55,74.51h-14.59v-12.57l7.07-4.78,4.17,9.27,3.35,8.08ZM44.18,61.42l-5.31,4.02h-.01s-3.94-8.74-3.94-8.74l9.26-6.36v11.08ZM51.85,44.18l-7.14,4.57-7.53-6.11,4.13-7.75,10.61-1.54-.07,10.83Z"/>
  </g>
</svg>